<?xml version="1.0" encoding="UTF-8"?>
<svg version="1.1" xmlns="http://www.w3.org/2000/svg" width="28" height="28">
<path d="M0 0 C7.92 0 15.84 0 24 0 C21.77502475 4.44995051 19.55366005 6.60084691 16 10 C12.125 8.125 12.125 8.125 11 7 C9.33382885 6.95936168 7.66611905 6.957279 6 7 C7.98 8.98 9.96 10.96 12 13 C10.55746343 16.36591866 8.66735273 18.51047079 6 21 C9.75519057 20.48792856 12.66688525 19.7824918 16 18 C17.33929505 19.28548409 18.67128643 20.57858155 20 21.875 C20.7425 22.59429688 21.485 23.31359375 22.25 24.0546875 C24 26 24 26 24 28 C16.08 28 8.16 28 0 28 C-1.29361994 25.41276011 -1.12948949 23.51886997 -1.1328125 20.625 C-1.13410156 19.55765625 -1.13539062 18.4903125 -1.13671875 17.390625 C-1.13285156 16.27171875 -1.12898437 15.1528125 -1.125 14 C-1.12886719 12.88109375 -1.13273438 11.7621875 -1.13671875 10.609375 C-1.13542969 9.54203125 -1.13414063 8.4746875 -1.1328125 7.375 C-1.13168457 6.39273437 -1.13055664 5.41046875 -1.12939453 4.3984375 C-1 2 -1 2 0 0 Z " fill="#26A887" transform="translate(2,0)"/>
</svg>
